<svg width="277" height="60" fill="none" xmlns="http://www.w3.org/2000/svg"><path d="M54.763 13.06C49.357 5.172 40.282 0 30 0 13.431 0 0 13.431 0 30c0 2.41.284 4.755.821 7l15.277-15.277a3.75 3.75 0 015.304 0L33.75 34.072l21.013-21.013z" fill="#EF2A82"/><path d="M58.328 20.1L36.402 42.027a3.75 3.75 0 01-5.304 0L18.75 29.678 3.801 44.627C8.933 53.799 18.742 60 30 60c16.569 0 30-13.431 30-30 0-3.469-.589-6.8-1.672-9.9z" fill="#EF2A82"/><path d="M94.212 37.584h-7.809L85.04 42h-6.088l8.67-23.639h5.358L101.712 42h-6.12l-1.38-4.416zm-6.445-4.4h5.082l-2.55-8.199-2.532 8.2zM123.193 42h-5.667l-8.377-14.71V42h-5.699V18.361h5.699l8.361 14.71V18.36h5.683V42zM140.516 37.584h-7.81L131.343 42h-6.089l8.67-23.639h5.358L148.016 42h-6.12l-1.38-4.416zm-6.446-4.4h5.082l-2.549-8.199-2.533 8.2zM155.452 37.617h9.92V42h-15.618V18.361h5.698v19.256zM171.882 28.622l4.351-10.26h6.154l-7.615 15.147V42h-5.78v-8.491l-7.598-15.148h6.121l4.367 10.261zM202.957 22.761h-7.095V42h-5.699V22.761h-6.965v-4.4h19.759v4.4zM211.448 42h-5.682V18.361h5.682V42zM234.535 33.996c-.076 1.645-.52 3.1-1.332 4.367-.812 1.256-1.953 2.23-3.425 2.923-1.462.692-3.134 1.039-5.017 1.039-3.107 0-5.553-1.012-7.339-3.036-1.785-2.024-2.678-4.882-2.678-8.573v-1.169c0-2.316.4-4.34 1.201-6.072.812-1.742 1.975-3.084 3.491-4.026 1.515-.952 3.268-1.429 5.26-1.429 2.868 0 5.174.758 6.916 2.273 1.743 1.505 2.733 3.583 2.971 6.235h-5.682c-.043-1.44-.406-2.473-1.088-3.101-.682-.628-1.721-.942-3.117-.942-1.418 0-2.457.53-3.117 1.591-.66 1.06-1.007 2.755-1.039 5.082v1.672c0 2.522.314 4.324.941 5.407.639 1.082 1.732 1.623 3.28 1.623 1.31 0 2.311-.309 3.003-.925.693-.617 1.061-1.597 1.104-2.939h5.667zM249.422 35.717c0-.834-.297-1.483-.893-1.948-.584-.466-1.618-.947-3.101-1.445-1.482-.498-2.695-.98-3.636-1.445-3.063-1.505-4.595-3.572-4.595-6.202 0-1.31.379-2.462 1.137-3.458.768-1.007 1.85-1.786 3.247-2.338 1.396-.563 2.965-.844 4.708-.844 1.699 0 3.22.303 4.562.909 1.353.606 2.403 1.472 3.15 2.598.747 1.114 1.12 2.392 1.12 3.831h-5.682c0-.963-.298-1.71-.893-2.24-.585-.53-1.38-.796-2.387-.796-1.017 0-1.824.227-2.419.682-.584.444-.877 1.012-.877 1.705 0 .606.325 1.158.974 1.656.65.487 1.792.995 3.426 1.526 1.634.52 2.977 1.082 4.026 1.688 2.555 1.472 3.832 3.502 3.832 6.088 0 2.068-.779 3.691-2.338 4.871-1.559 1.18-3.696 1.77-6.413 1.77-1.916 0-3.653-.341-5.211-1.023-1.548-.693-2.717-1.635-3.507-2.825-.78-1.201-1.169-2.581-1.169-4.14h5.715c0 1.266.324 2.202.974 2.809.66.595 1.726.893 3.198.893.942 0 1.683-.2 2.224-.601.552-.411.828-.985.828-1.721z" fill="#fff"/></svg>