<svg width="1589" height="815" fill="none" xmlns="http://www.w3.org/2000/svg"><path d="M-11 544h1600v60L-11 815V544z" fill="#EF2A82"/><path d="M-11 0h1600v587L-11 798V0z" fill="#172755"/><mask id="a" maskUnits="userSpaceOnUse" x="-11" y="17" width="1600" height="799"><path d="M-11 17h1600v587L-11 815V17z" fill="#172755"/></mask><g opacity=".07" fill="#8794BA" mask="url(#a)"><path d="M1821.47 291.986C1691.93 102.987 1474.44-21 1228-21c-397.093 0-719 321.907-719 719 0 57.771 6.814 113.951 19.681 167.779l366.143-366.143c35.098-35.098 92.004-35.098 127.106 0l295.95 295.949 503.59-503.599z"/><path d="M1906.93 460.734l-525.5 525.505c-35.1 35.101-92.01 35.101-127.11 0L958.375 690.29l-358.271 358.27C723.1 1268.39 958.195 1417 1228 1417c397.09 0 719-321.91 719-719 0-83.139-14.11-162.983-40.07-237.266z"/></g><g opacity=".07" fill="#8794BA"><path d="M491.387-117.35C431.929-204.094 332.11-261.001 219-261.001c-182.254 0-330 147.746-330 330 0 26.515 3.127 52.3 9.033 77.006L66.082-22.044c16.109-16.11 42.227-16.11 58.336 0L260.25 113.788 491.387-117.35z"/><path d="M530.609-39.899L289.418 201.292c-16.109 16.11-42.227 16.11-58.336 0L95.25 65.461-69.186 229.897C-12.734 330.792 95.167 398.999 219 398.999c182.254 0 330-147.746 330-330 0-38.158-6.477-74.804-18.391-108.898z"/></g></svg>